<svg xmlns="http://www.w3.org/2000/svg" width="960" height="260" viewBox="0 0 960 260" role="img" aria-labelledby="title desc">
  <title id="title">赤铎 Dwo Agent</title>
  <desc id="desc">A rust-red Chinese bell with gear-like shoulders beside the ChiDuo wordmark.</desc>
  <rect width="960" height="260" fill="#f3ead7"/>
  <g transform="translate(48 28)">
    <path d="M50 135a80 80 0 1 1 120 0z" fill="#d75a43"/>
    <path d="M94 24h32v39H94z" fill="#59645d" stroke="#202326" stroke-width="7" stroke-linejoin="round"/>
    <path d="M72 61c-9 2-14 9-15 20L45 181c20-13 42-20 65-20s45 7 65 20L163 81c-1-11-6-18-15-20z" fill="#69746b" stroke="#202326" stroke-width="8" stroke-linejoin="round"/>
    <path d="M80 72c-6 20-10 47-12 80M140 72c6 20 10 47 12 80" fill="none" stroke="#8d978e" stroke-width="7" stroke-linecap="round" opacity=".82"/>
    <g fill="#d8a538">
      <circle cx="78" cy="80" r="3"/>
      <circle cx="142" cy="80" r="3"/>
      <circle cx="75" cy="94" r="3"/>
      <circle cx="145" cy="94" r="3"/>
      <circle cx="69" cy="128" r="3"/>
      <circle cx="151" cy="128" r="3"/>
      <circle cx="68" cy="143" r="3"/>
      <circle cx="152" cy="143" r="3"/>
    </g>
    <path d="M62 111c30 8 66 8 96 0" fill="none" stroke="#b4bab3" stroke-width="8" stroke-linecap="round"/>
    <path d="M54 160c19-7 38-11 56-11s37 4 56 11" fill="none" stroke="#303632" stroke-width="6" stroke-linecap="round" opacity=".78"/>
  </g>
  <g fill="#202326">
    <text x="270" y="132" font-family="Noto Serif SC, Source Han Serif SC, Microsoft YaHei, serif" font-size="88" font-weight="700">赤铎</text>
    <text x="274" y="186" font-family="Segoe UI, Arial, sans-serif" font-size="30" font-weight="650" letter-spacing="6">DWO AGENT</text>
  </g>
  <rect x="274" y="207" width="370" height="8" rx="4" fill="#c84b31"/>
  <circle cx="664" cy="211" r="4" fill="#d7a43b"/>
</svg>
